
<svg viewBox="0 0 80 80"
 fill="currentColor" stroke="currentColor">

<g transform="translate(0.000000,80.000000) scale(0.100000,-0.100000)"
>
<path d="M373 728 c-6 -7 -16 -33 -23 -58 -25 -93 -75 -166 -135 -198 -16 -8
-55 -23 -85 -32 -47 -14 -55 -20 -58 -43 -3 -24 2 -30 35 -43 154 -60 198
-102 234 -220 37 -121 72 -123 108 -5 36 118 100 181 219 216 79 24 79 74 -1
96 -98 26 -171 88 -200 170 -8 24 -21 62 -29 84 -15 42 -45 58 -65 33z m37
-100 c0 -19 51 -113 78 -142 36 -38 111 -86 136 -86 14 -1 4 -9 -28 -25 -83
-40 -158 -125 -186 -209 l-12 -38 -23 56 c-40 98 -110 170 -192 197 l-36 12
47 18 c90 34 160 110 188 201 10 33 28 44 28 16z"/>
</g>
</svg>
